HIERARCHY
ROOT Hips
{
	OFFSET -0.001795 -0.223333 0.028219
	CHANNELS 6 Xposition Yposition Zposition Zrotation Yrotation Xrotation 
	JOINT LeftUpLeg
	{
		OFFSET 0.069520 -0.091406 -0.006815
		CHANNELS 3 Zrotation Yrotation Xrotation
		JOINT LeftLeg
		{
			OFFSET 0.034277 -0.375199 -0.004496
			CHANNELS 3 Zrotation Yrotation Xrotation
			JOINT LeftFoot
			{
				OFFSET -0.013596 -0.397961 -0.043693
				CHANNELS 3 Zrotation Yrotation Xrotation
				JOINT LeftToe
				{
					OFFSET 0.026358 -0.055791 0.119288
					CHANNELS 3 Zrotation Yrotation Xrotation
					End Site
					{
						OFFSET 0.000000 0.000000 0.000000
					}
				}
			}
		}
	}
	JOINT RightUpLeg
	{
		OFFSET -0.067670 -0.090522 -0.004320
		CHANNELS 3 Zrotation Yrotation Xrotation
		JOINT RightLeg
		{
			OFFSET -0.038290 -0.382569 -0.008850
			CHANNELS 3 Zrotation Yrotation Xrotation
			JOINT RightFoot
			{
				OFFSET 0.015774 -0.398415 -0.042312
				CHANNELS 3 Zrotation Yrotation Xrotation
				JOINT RightToe
				{
					OFFSET -0.025372 -0.048144 0.123348
					CHANNELS 3 Zrotation Yrotation Xrotation
					End Site
					{
						OFFSET 0.000000 0.000000 0.000000
					}
				}
			}
		}
	}
	JOINT Spine
	{
		OFFSET -0.002533 0.108963 -0.026696
		CHANNELS 3 Zrotation Yrotation Xrotation
		JOINT Spine1
		{
			OFFSET 0.005487 0.135180 0.001092
			CHANNELS 3 Zrotation Yrotation Xrotation
			JOINT Spine2
			{
				OFFSET 0.001457 0.052922 0.025425
				CHANNELS 3 Zrotation Yrotation Xrotation
				JOINT Neck
				{
					OFFSET -0.002778 0.213870 -0.042857
					CHANNELS 3 Zrotation Yrotation Xrotation
					JOINT Head
					{
						OFFSET 0.005152 0.064970 0.051349
						CHANNELS 3 Zrotation Yrotation Xrotation
						End Site
						{
							OFFSET 0.000000 0.000000 0.000000
						}
					}
				}
				JOINT LeftShoulder
				{
					OFFSET 0.078845 0.121749 -0.034090
					CHANNELS 3 Zrotation Yrotation Xrotation
					JOINT LeftArm
					{
						OFFSET 0.090977 0.030469 -0.008868
						CHANNELS 3 Zrotation Yrotation Xrotation
						JOINT LeftForeArm
						{
							OFFSET 0.259612 -0.012772 -0.027456
							CHANNELS 3 Zrotation Yrotation Xrotation
							JOINT LeftHand
							{
								OFFSET 0.249234 0.008986 -0.001171
								CHANNELS 3 Zrotation Yrotation Xrotation
								End Site
								{
									OFFSET 0.000000 0.000000 0.000000
								}
							}
						}
					}
				}
				JOINT RightShoulder
				{
					OFFSET -0.081759 0.118833 -0.038615
					CHANNELS 3 Zrotation Yrotation Xrotation
					JOINT RightArm
					{
						OFFSET -0.096012 0.032551 -0.009143
						CHANNELS 3 Zrotation Yrotation Xrotation
						JOINT RightForeArm
						{
							OFFSET -0.253742 -0.013329 -0.021401
							CHANNELS 3 Zrotation Yrotation Xrotation
							JOINT RightHand
							{
								OFFSET -0.255298 0.007772 -0.005559
								CHANNELS 3 Zrotation Yrotation Xrotation
								End Site
								{
									OFFSET 0.000000 0.000000 0.000000
								}
							}
						}
					}
				}
			}
		}
	}
}
MOTION
Frames: 6
Frame Time: 0.050000
-0.103641 0.938867 -0.348434 -0.341506 5.158731 2.086968 6.360653 -0.242040 -1.859877 -3.617302 0.352676 -0.490491 11.874215 23.223693 13.897972 0.000000 0.000000 0.000000 -9.097872 0.278431 -8.708589 1.180004 0.146669 14.960126 -5.426302 -13.903840 2.654326 0.000000 0.000000 0.000000 7.667260 -1.140700 8.988821 -6.006879 2.057891 -25.267964 -0.699451 18.030070 31.781802 7.105303 2.285298 -38.629662 0.000000 0.000000 0.000000 -22.937839 -4.079651 -6.362635 -55.905759 7.271846 -11.031256 -10.878178 -31.502639 2.962944 0.000000 0.000000 0.000000 33.945112 -8.644048 0.704664 68.707556 1.006253 -9.936967 11.500028 42.528889 10.000747 0.000000 0.000000 0.000000 
-0.127088 0.937721 -0.348867 -0.125430 4.321880 2.247110 7.650867 -0.268032 -2.572089 -3.890343 0.384459 0.163063 12.243075 23.681171 15.259928 0.000000 0.000000 0.000000 -8.150330 0.294042 -5.685042 1.161814 0.079525 9.076185 -4.927206 -12.646951 1.493945 0.000000 0.000000 0.000000 8.293209 -1.164732 8.710626 -5.955715 2.044773 -25.100125 -0.291675 19.276096 31.999316 6.608359 2.586122 -37.935220 0.000000 0.000000 0.000000 -23.734207 -3.410270 -7.265457 -55.559150 8.483303 -11.364011 -9.460376 -30.149187 2.453177 0.000000 0.000000 0.000000 34.180544 -8.399419 1.150742 68.155706 1.077289 -9.980921 11.969401 41.977824 9.974255 0.000000 0.000000 0.000000 
-0.151514 0.938274 -0.350131 -0.070115 4.349795 2.370722 8.867418 -0.301428 -3.974191 -4.160982 0.411112 2.085941 13.043732 24.718755 16.246575 0.000000 0.000000 0.000000 -7.507979 0.251641 -3.581337 2.965956 -0.300657 4.421615 -4.954118 -12.652709 0.889348 0.000000 0.000000 0.000000 8.611313 -1.303365 9.536429 -5.925568 2.055193 -24.621500 0.207750 20.214202 32.062733 5.006257 3.463642 -38.493069 0.000000 0.000000 0.000000 -24.393580 -1.551040 -8.990347 -54.645949 10.193805 -11.683074 -10.845400 -31.032965 2.768094 0.000000 0.000000 0.000000 33.263381 -8.179461 1.602937 68.462154 1.766921 -9.424164 10.652458 41.279660 9.279980 0.000000 0.000000 0.000000 
-0.174388 0.940343 -0.353201 0.027517 6.939415 3.045103 10.385633 -0.392264 -6.618585 -5.082390 0.485296 3.121719 14.419436 26.519308 17.617810 0.000000 0.000000 0.000000 -5.756892 0.248668 -3.455895 3.049786 -0.348660 3.125240 -5.859118 -14.889508 -0.132912 0.000000 0.000000 0.000000 9.185801 -1.498063 10.112986 -5.623023 1.966255 -25.612911 1.409901 20.153320 33.153170 4.553881 3.913339 -38.131489 0.000000 0.000000 0.000000 -26.310602 -2.085405 -10.183736 -53.170056 12.606963 -11.894637 -11.049236 -32.531858 2.834330 0.000000 0.000000 0.000000 32.258407 -8.438923 1.955188 67.315511 2.069688 -9.174069 11.926679 41.138887 9.821901 0.000000 0.000000 0.000000 
-0.193258 0.942370 -0.357026 0.324404 9.637717 3.234990 11.125426 -0.477138 -9.219582 -6.157264 0.567600 3.913542 16.496812 29.183895 17.376864 0.000000 0.000000 0.000000 -4.473205 0.229898 -3.146522 2.676720 -0.322839 2.313813 -6.294014 -16.081972 0.765824 0.000000 0.000000 0.000000 10.080343 -1.791620 11.031225 -5.717381 1.998198 -25.823218 1.548896 21.086388 33.123624 3.634252 4.709340 -39.241295 0.000000 0.000000 0.000000 -26.376470 -2.017718 -11.387865 -52.776348 13.978571 -12.091837 -12.658868 -34.528094 3.160922 0.000000 0.000000 0.000000 32.230568 -8.976419 2.532232 67.292606 3.251612 -8.486765 9.262852 39.775867 8.536922 0.000000 0.000000 0.000000 
-0.207227 0.944718 -0.360033 1.677816 12.883882 3.544738 9.783182 -0.700163 -12.975904 -7.213655 0.644430 6.355731 14.743766 27.438694 13.765956 0.000000 0.000000 0.000000 -4.805648 0.101231 -1.747832 3.253228 -0.443459 1.087006 -6.827351 -17.442130 1.662781 0.000000 0.000000 0.000000 10.049027 -1.936325 11.601020 -5.317758 1.909598 -26.353018 1.985705 21.718715 33.616466 2.912814 5.352477 -39.934696 0.000000 0.000000 0.000000 -25.315859 -1.982669 -12.198247 -54.447789 15.501788 -13.213607 -15.736610 -36.600944 3.841308 0.000000 0.000000 0.000000 30.950881 -10.943131 1.774986 67.163012 3.378847 -7.885948 9.028133 38.156798 8.169427 0.000000 0.000000 0.000000 
